<svg width="140" height="24" viewBox="0 0 140 24" fill="none" xmlns="http://www.w3.org/2000/svg">
    <g clip-path="url(#clip0_56238_15265)">
        <path
            d="M65.7749 8.38366H62.9151V19.5366H66.4709V11.7715C66.9306 11.2944 67.5548 11.0157 68.2128 10.9939C69.2586 10.9939 69.8861 11.5598 69.8861 12.6185V19.4636H73.4563V12.195C73.4563 9.51172 72.2698 8.17921 69.7599 8.17921C67.8774 8.17921 66.8316 8.74508 66.0634 9.66141L65.7749 8.38366ZM50.7836 14.3818C50.7836 18.1238 52.1793 19.7447 54.8263 19.7447C56.4311 19.7447 57.5454 19.1788 58.1729 18.2625L58.3821 19.4636H61.3104V8.87649C59.6855 8.36914 57.9903 8.13121 56.2904 8.17191C52.7346 8.17191 50.7836 10.3623 50.7836 14.3781M57.686 16.0721C57.4681 16.3209 57.1996 16.5192 56.899 16.6534C56.5984 16.7876 56.2727 16.8546 55.9442 16.8496C54.9669 16.8496 54.4801 15.9333 54.4801 14.2394C54.4801 12.122 55.039 11.0633 56.2219 11.0633C56.7132 11.0652 57.2033 11.1128 57.686 11.2056V16.0721ZM42.6262 4.21454H39.0704V19.5475H42.6262V11.7715C43.0859 11.2944 43.71 11.0157 44.3681 10.9939C45.4139 10.9939 46.0414 11.5598 46.0414 12.6185V19.4636H49.5972V12.195C49.5972 9.51172 48.4107 8.17921 45.9007 8.17921C44.7402 8.12963 43.5936 8.45014 42.6226 9.09554L42.6262 4.21454ZM32.3087 13.8889C32.3087 12.2644 33.2138 11.2787 34.9593 11.2787C35.7985 11.2855 36.6191 11.5295 37.3286 11.9833L37.8154 8.94951C36.6266 8.43844 35.3413 8.19791 34.0505 8.24493C30.4947 8.24493 28.5437 10.293 28.5437 14.0861C28.5437 17.8792 30.3468 19.8031 33.982 19.8031C35.3886 19.8076 36.7754 19.4682 38.0246 18.8137L37.5378 15.999C36.7582 16.4773 35.8703 16.7451 34.9593 16.7766C33.2174 16.6343 32.3087 15.5756 32.3087 13.8816M24.3748 19.5293H27.2346V8.38366H23.6788V16.0757C23.2192 16.5528 22.595 16.8315 21.937 16.8533C20.8912 16.8533 20.2637 16.2874 20.2637 15.2287V8.38366H16.6935V15.7252C16.6935 18.4085 17.8799 19.741 20.3899 19.741C22.2724 19.741 23.3182 19.1752 24.0863 18.2588L24.3748 19.5293ZM12.1135 19.5293H16.2283C14.6235 15.0133 12.2613 8.51873 10.4582 4.19629H5.77005C3.88757 8.50048 1.58676 14.9951 0 19.5293H4.11477C4.47539 18.4706 4.8829 17.1308 5.30123 15.6486H10.8801C11.367 17.0614 11.7853 18.4012 12.1351 19.5293M9.97136 12.6842H6.16674C6.72571 10.8588 7.35321 8.94221 8.04922 7.10955C8.74523 8.93491 9.37272 10.8515 9.9317 12.6842"
            fill="#E30613" />
        <path
            d="M76.1939 23.9999C76.1201 24.0014 76.0468 23.9878 75.9783 23.9599C75.9098 23.9319 75.8476 23.8903 75.7954 23.8375C75.7432 23.7846 75.7021 23.7217 75.6745 23.6523C75.6469 23.583 75.6335 23.5088 75.6349 23.434V0.565966C75.6335 0.491247 75.6469 0.416994 75.6745 0.347668C75.7021 0.278341 75.7432 0.21537 75.7954 0.162525C75.8476 0.10968 75.9098 0.0680611 75.9783 0.0401513C76.0468 0.0122416 76.1201 -0.00137959 76.1939 0.000110267"
            fill="#E30613" />
        <path
            d="M78.3724 0.000110267C78.4462 -0.00137959 78.5196 0.0122416 78.5881 0.0401513C78.6566 0.0680611 78.7188 0.10968 78.771 0.162525C78.8232 0.21537 78.8643 0.278341 78.8919 0.347668C78.9194 0.416994 78.9329 0.491247 78.9314 0.565966V23.434C78.9329 23.5088 78.9194 23.583 78.8919 23.6523C78.8643 23.7217 78.8232 23.7846 78.771 23.8375C78.7188 23.8903 78.6566 23.9319 78.5881 23.9599C78.5196 23.9878 78.4462 24.0014 78.3724 23.9999"
            fill="#E30613" />
        <path
            d="M86.341 13.0936C88.2234 12.6701 89.4099 11.2682 89.4099 9.4246C89.4099 7.23417 87.7366 5.68262 85.3673 5.68262H81.5987C81.4691 5.68262 81.3448 5.73474 81.2532 5.82751C81.1615 5.92028 81.11 6.0461 81.11 6.17729C81.11 6.30849 81.1615 6.43431 81.2532 6.52708C81.3448 6.61985 81.4691 6.67196 81.5987 6.67196H85.223C87.0261 6.67196 88.292 7.80003 88.292 9.4246C88.292 11.0492 87.037 12.1772 85.223 12.1772H81.5987C81.4691 12.1772 81.3448 12.2293 81.2532 12.3221C81.1615 12.4149 81.11 12.5407 81.11 12.6719C81.11 12.8031 81.1615 12.9289 81.2532 13.0217C81.3448 13.1145 81.4691 13.1666 81.5987 13.1666H85.0138L88.6382 18.0366C88.6849 18.1251 88.7554 18.1985 88.8416 18.2482C88.9277 18.2979 89.0259 18.322 89.125 18.3177C89.1988 18.3192 89.2722 18.3056 89.3406 18.2777C89.4091 18.2498 89.4713 18.2082 89.5235 18.1553C89.5757 18.1025 89.6168 18.0395 89.6444 17.9702C89.672 17.9008 89.6854 17.8266 89.684 17.7519C89.6631 17.5705 89.5904 17.3992 89.4748 17.259L86.341 13.0936Z"
            fill="#E30613" />
        <path
            d="M100.091 17.2591H92.9108V12.1773H99.0415C99.1711 12.1773 99.2954 12.1252 99.387 12.0325C99.4786 11.9397 99.5301 11.8139 99.5301 11.6827C99.5301 11.5515 99.4786 11.4257 99.387 11.3329C99.2954 11.2401 99.1711 11.188 99.0415 11.188H92.9108V6.67208H99.9539C100.083 6.67208 100.208 6.61996 100.299 6.52719C100.391 6.43442 100.443 6.3086 100.443 6.1774C100.443 6.04621 100.391 5.92039 100.299 5.82762C100.208 5.73485 100.083 5.68273 99.9539 5.68273H92.424C92.3505 5.68125 92.2774 5.69476 92.2092 5.72244C92.1409 5.75013 92.0789 5.79143 92.0267 5.84388C91.9746 5.89634 91.9334 5.95887 91.9056 6.02777C91.8778 6.09667 91.864 6.17052 91.865 6.24494V17.7483C91.8577 17.8245 91.8672 17.9013 91.8927 17.9733C91.9182 18.0453 91.9592 18.1107 92.0126 18.1648C92.066 18.2188 92.1306 18.2603 92.2017 18.2861C92.2729 18.312 92.3487 18.3216 92.424 18.3142H100.159C100.224 18.3157 100.288 18.304 100.347 18.2797C100.407 18.2555 100.461 18.2192 100.507 18.1732C100.552 18.1271 100.588 18.0722 100.612 18.0117C100.636 17.9512 100.648 17.8865 100.646 17.8213C100.578 17.4563 100.369 17.2555 100.087 17.2555"
            fill="#E30613" />
        <path
            d="M112.528 6.16192C112.529 6.09679 112.518 6.03203 112.494 5.97155C112.47 5.91108 112.434 5.85615 112.388 5.81009C112.343 5.76402 112.289 5.72777 112.229 5.70353C112.169 5.67929 112.105 5.66757 112.041 5.66907H103.314C103.184 5.66907 103.06 5.72119 102.968 5.81396C102.876 5.90673 102.825 6.03255 102.825 6.16375C102.825 6.29494 102.876 6.42077 102.968 6.51353C103.06 6.6063 103.184 6.65841 103.314 6.65841H107.147V17.8113C107.158 17.9531 107.222 18.0854 107.325 18.1818C107.428 18.2782 107.564 18.3318 107.704 18.3318C107.845 18.3318 107.98 18.2782 108.083 18.1818C108.187 18.0854 108.25 17.9531 108.261 17.8113V6.65477H112.095C112.214 6.64274 112.324 6.58484 112.401 6.49308C112.479 6.40132 112.519 6.28274 112.513 6.16192"
            fill="#E30613" />
        <path
            d="M121.19 6.09951C121.148 5.94867 121.056 5.81718 120.929 5.72735C120.802 5.63752 120.649 5.59488 120.494 5.60666C120.217 5.60666 120.008 5.74904 119.798 6.09951L114.847 17.5335C114.778 17.6759 114.706 17.7453 114.706 17.8986C114.707 17.9694 114.723 18.0392 114.752 18.1034C114.782 18.1677 114.824 18.2249 114.877 18.2714C114.93 18.3179 114.992 18.3526 115.059 18.3733C115.125 18.394 115.196 18.4002 115.265 18.3914C115.543 18.3914 115.684 18.1103 115.752 18.0264L117.357 14.2844H123.563L125.168 18.0264C125.22 18.1495 125.312 18.251 125.428 18.3141C125.545 18.3771 125.679 18.3981 125.809 18.3734C125.939 18.3487 126.057 18.2799 126.143 18.1783C126.229 18.0767 126.278 17.9484 126.282 17.8146C126.293 17.7157 126.269 17.6162 126.214 17.5335L121.19 6.09951ZM123.141 13.2987H117.844L120.494 7.15821L123.141 13.2987Z"
            fill="#E30613" />
        <path
            d="M129.025 5.63522C128.95 5.62786 128.874 5.63744 128.803 5.66328C128.731 5.68912 128.667 5.73056 128.613 5.78465C128.56 5.83874 128.519 5.90413 128.493 5.97612C128.468 6.04812 128.458 6.12495 128.466 6.20108V17.8469C128.477 17.9886 128.541 18.1209 128.644 18.2173C128.747 18.3137 128.882 18.3673 129.023 18.3673C129.163 18.3673 129.299 18.3137 129.402 18.2173C129.505 18.1209 129.569 17.9886 129.58 17.8469V6.20108C129.582 6.12636 129.568 6.05211 129.541 5.98278C129.513 5.91346 129.472 5.85049 129.42 5.79764C129.367 5.7448 129.305 5.70317 129.237 5.67526C129.168 5.64735 129.095 5.63373 129.021 5.63522"
            fill="#E30613" />
        <path
            d="M139.515 17.3025H132.875V6.15326C132.864 6.0115 132.801 5.87925 132.697 5.7828C132.594 5.68636 132.459 5.63281 132.318 5.63281C132.178 5.63281 132.042 5.68636 131.939 5.7828C131.836 5.87925 131.772 6.0115 131.761 6.15326V17.799C131.754 17.8752 131.763 17.952 131.789 18.024C131.814 18.096 131.855 18.1614 131.909 18.2155C131.962 18.2695 132.027 18.311 132.098 18.3368C132.169 18.3627 132.245 18.3722 132.32 18.3649H139.5C139.565 18.3664 139.628 18.3547 139.688 18.3304C139.748 18.3062 139.802 18.2699 139.848 18.2239C139.893 18.1778 139.929 18.1229 139.953 18.0624C139.977 18.0019 139.989 17.9372 139.987 17.872C140.056 17.507 139.846 17.3062 139.5 17.3062"
            fill="#E30613" />
    </g>
    <defs>
        <clipPath id="clip0_56238_15265">
            <rect width="140" height="24" fill="white" />
        </clipPath>
    </defs>
</svg>