<svg width="109" height="26" viewBox="0 0 109 26" fill="none" xmlns="http://www.w3.org/2000/svg">
<path d="M73.8192 1.64527C74.0211 1.44585 74.3239 1.42092 74.551 1.54556C74.5258 1.54556 74.5006 1.54556 74.4753 1.54556C74.2987 1.54556 74.1472 1.69513 74.1472 1.86962C74.1472 2.04412 74.2987 2.19369 74.4753 2.19369C74.652 2.19369 74.8034 2.04412 74.8034 1.86962C74.8034 1.86962 74.8034 1.8447 74.8034 1.81977C74.9044 2.04412 74.8539 2.2934 74.6772 2.4679C74.4501 2.69225 74.0715 2.69225 73.8192 2.4679C73.592 2.24355 73.592 1.86962 73.8192 1.62034V1.64527ZM74.5763 6.33175C75.5858 4.71143 75.9643 2.11891 75.9643 2.11891L77.0748 1.62034C77.0748 1.62034 77.1252 1.4957 77.0495 1.4957H75.8381C75.6615 1.14671 75.0053 0.573364 74.0211 0.573364C73.4406 0.573364 72.9611 0.722933 72.5068 1.02207C72.5068 1.02207 71.8506 1.47078 70.8916 2.26847L67.9893 4.66157C67.7622 4.861 67.4846 4.96071 67.106 4.96071H63.4466C63.4466 4.96071 63.3709 5.03549 63.3961 5.08535C63.6485 5.85812 64.3299 6.55611 65.5413 6.55611L64.6832 7.42859C64.6832 7.42859 64.658 7.55323 64.7337 7.55323H67.9893C70.3616 7.55323 71.8002 6.53118 72.7592 5.11028C72.8349 4.98564 72.9106 4.861 72.9863 4.73636C73.0116 4.73636 73.0368 4.78621 72.9863 4.83607C72.7339 5.40941 72.1535 6.58103 71.043 7.27902C70.6645 7.50337 70.5383 7.57816 70.0083 7.77758C69.9578 7.77758 69.9578 7.82744 69.9831 7.8773L71.2954 11.5168H72.0525L70.8411 8.17643C71.6235 8.17643 73.5163 7.97701 74.5258 6.33175H74.5763ZM71.7749 8.67499L72.8097 11.5168H73.5668L72.4816 8.52543C72.2797 8.57528 72.0273 8.62514 71.7749 8.65007V8.67499Z" fill="#DF1725" stroke="#DF1725" stroke-width="0.04" stroke-miterlimit="10"/>
<path d="M23.1931 11.3174L23.6978 7.62804H19.5084L20.6189 0.648174V0.548462H16.2276L15.0667 7.62804H11.3568L12.4672 0.648174V0.548462H8.0507L6.88978 7.62804H2.29659L1.81708 11.3174H6.30933L5.67839 15.1563H1.36281L0.883301 18.8457H5.12317L4.11368 24.978H8.53021L9.5397 18.8457H13.2748L12.2653 24.978H16.6819L17.6914 18.8457H22.1584L22.6631 15.1563H18.2718L18.8775 11.3174H23.1679H23.1931ZM14.4862 11.3174L13.8553 15.1563H10.1454L10.7511 11.3174H14.4862Z" fill="#DF1725"/>
<path d="M29.7043 11.9904H27.9882V9.87148H32.3038V7.60303H25.0859V18.7957H29.7043C30.8653 18.7957 31.7738 18.4966 32.4552 17.8983C33.1114 17.3001 33.4647 16.4525 33.4647 15.4055C33.4647 14.3585 33.1366 13.5359 32.4552 12.9127C31.799 12.3144 30.8653 12.0153 29.7043 12.0153V11.9904ZM30.5624 15.3806C30.5624 15.7794 30.4362 16.0786 30.1838 16.3029C29.9315 16.5273 29.5782 16.6519 29.1239 16.6519H27.8873V14.1093H29.1239C29.5782 14.1093 29.9315 14.2339 30.1838 14.4583C30.4362 14.6826 30.5624 14.9817 30.5624 15.3806Z" fill="#DF1725"/>
<path d="M37.6289 14.2839H41.1621V12.14H37.6289V9.87158H41.9444V7.62805H34.7518V18.7709H41.8435L42.1463 16.5025H37.6289V14.2839Z" fill="#DF1725"/>
<path d="M51.1813 13.7354C50.828 13.3365 50.3737 13.0374 49.8185 12.8629C50.8784 12.3893 51.4337 11.5916 51.4337 10.4947C51.4337 9.87154 51.257 9.34805 50.9289 8.87442C50.6008 8.42571 50.0961 8.05179 49.4904 7.80251C48.8847 7.55323 48.1528 7.42859 47.32 7.42859C46.6638 7.42859 45.9824 7.50337 45.3262 7.67787C44.6701 7.82744 44.0391 8.07672 43.4839 8.37586L43.4082 8.42571L44.1653 10.5446L44.2663 10.4947C45.1243 10.071 46.0329 9.84661 46.9414 9.84661C48.1276 9.84661 48.708 10.1956 48.708 10.9185C48.708 11.2924 48.5566 11.5667 48.2285 11.7661C47.9004 11.9655 47.4209 12.0652 46.8152 12.0652H45.2L44.9224 14.234H46.8657C47.5976 14.234 48.1528 14.3337 48.5061 14.558C48.8342 14.7574 49.0109 15.0317 49.0109 15.4056C49.0109 16.2033 48.3295 16.5772 46.9162 16.5772C45.831 16.5772 44.8972 16.3778 44.0896 15.954L43.9634 15.9041L43.2568 18.0978L43.3325 18.1477C44.3925 18.6712 45.6291 18.9454 47.0171 18.9454C48.5061 18.9454 49.6923 18.6462 50.4999 18.048C51.3327 17.4497 51.7618 16.6021 51.7618 15.5801C51.7618 14.8572 51.5599 14.234 51.1561 13.7603L51.1813 13.7354Z" fill="#DF1725"/>
<path d="M58.9039 11.7661C59.4844 12.0902 59.9387 12.514 60.2668 13.0873C60.5948 13.6606 60.7715 14.3088 60.7715 15.0566C60.7715 15.8045 60.6201 16.4775 60.292 17.0509C59.9639 17.6242 59.5096 18.0729 58.9292 18.397C58.3487 18.7211 57.6673 18.8706 56.9354 18.8706C56.2036 18.8706 55.4969 18.7211 54.9165 18.397C54.336 18.0729 53.8817 17.6491 53.5536 17.0758C53.2255 16.5025 53.0489 15.8543 53.0489 15.1065C53.0489 14.3586 53.2255 13.6856 53.5536 13.1122C53.8817 12.5389 54.336 12.0902 54.9165 11.7661C55.4969 11.442 56.1783 11.2925 56.9354 11.2925C57.6926 11.2925 58.3487 11.442 58.9292 11.7661H58.9039ZM55.9007 13.6606C55.6483 14.0346 55.5221 14.5082 55.5221 15.1065C55.5221 15.7048 55.6483 16.1784 55.9007 16.5523C56.1531 16.9262 56.4812 17.1007 56.885 17.1007C57.2888 17.1007 57.5916 16.9013 57.844 16.5523C58.0964 16.1784 58.2225 15.7048 58.2225 15.1314C58.2225 14.5581 58.0964 14.0844 57.844 13.7105C57.5916 13.3366 57.2888 13.1621 56.885 13.1621C56.4812 13.1621 56.1531 13.3366 55.9007 13.7105V13.6606Z" fill="#DF1725"/>
<path d="M62.8662 17.8984C62.1343 17.2503 61.781 16.328 61.781 15.1065C61.781 13.885 62.1596 12.9876 62.8914 12.3145C63.6233 11.6415 64.6076 11.2925 65.8442 11.2925C66.6518 11.2925 67.3837 11.4171 68.0146 11.6415L67.6865 13.5111C67.4846 13.4114 67.2323 13.3615 66.9294 13.2867C66.6266 13.2369 66.3742 13.2119 66.1471 13.2119C65.5414 13.2119 65.0871 13.3864 64.7842 13.7105C64.4814 14.0346 64.33 14.5082 64.33 15.1065C64.33 15.7048 64.4814 16.1535 64.7842 16.5025C65.0871 16.8514 65.5414 17.001 66.1471 17.001C66.3994 17.001 66.6771 16.9761 66.9799 16.9262C67.308 16.8764 67.5604 16.8016 67.7623 16.7019L68.0903 18.5715C67.5099 18.8208 66.7275 18.9205 65.7937 18.9205C64.5571 18.9205 63.5981 18.5715 62.8662 17.9234V17.8984Z" fill="#DF1725"/>
<path d="M75.6615 13.3116H73.4659V18.7459H70.9169V13.3116H68.7213V11.442H75.6615V13.3116Z" fill="#DF1725"/>
<path d="M77.0243 17.9732C76.4943 17.35 76.2167 16.5024 76.2167 15.3807C76.2167 14.6079 76.3934 13.885 76.772 13.2867C77.1505 12.6635 77.6805 12.1899 78.3367 11.8409C78.9928 11.4919 79.75 11.3174 80.608 11.3174C81.2137 11.3174 81.7689 11.3672 82.2232 11.4919C82.6775 11.5916 83.157 11.7661 83.6365 11.9904V16.9511L83.687 18.7709H81.6175L81.3652 17.8984H81.3147C80.7847 18.5715 80.1033 18.9205 79.2957 18.9205C78.3367 18.9205 77.5796 18.6213 77.0243 17.9981V17.9732ZM80.6585 16.8514C80.8352 16.7517 81.0118 16.6021 81.138 16.4027V13.187C80.9109 13.1371 80.709 13.0873 80.5576 13.0873C80.0023 13.0873 79.5733 13.2867 79.2452 13.6856C78.9171 14.0844 78.7657 14.6328 78.7657 15.2809C78.7657 15.8294 78.8667 16.2531 79.0938 16.5523C79.2957 16.8514 79.5985 17.001 80.0023 17.001C80.2547 17.001 80.4818 16.9511 80.6585 16.8265V16.8514Z" fill="#DF1725"/>
<path d="M91.7377 13.3116H89.542V18.7459H86.9931V13.3116H84.7974V11.442H91.7377V13.3116Z" fill="#DF1725"/>
<path d="M100.268 18.5714V18.7459H97.5675L95.8261 16.1036H95.3719V18.7459H92.7977V11.442H95.3719V14.2838H95.7252L97.5423 11.442H100.116V11.6165L97.9461 14.9569V15.0815L100.243 18.5465L100.268 18.5714Z" fill="#DF1725"/>
<path d="M101.454 17.9732C100.924 17.35 100.646 16.5024 100.646 15.3807C100.646 14.6079 100.823 13.885 101.202 13.2867C101.58 12.6635 102.11 12.1899 102.766 11.8409C103.423 11.4919 104.18 11.3174 105.038 11.3174C105.643 11.3174 106.199 11.3672 106.653 11.4919C107.107 11.5916 107.587 11.7661 108.066 11.9904V16.9511L108.117 18.7709H106.047L105.795 17.8984H105.744C105.214 18.5715 104.533 18.9205 103.725 18.9205C102.766 18.9205 102.009 18.6213 101.454 17.9981V17.9732ZM105.063 16.8514C105.24 16.7517 105.416 16.6021 105.543 16.4027V13.187C105.315 13.1371 105.113 13.0873 104.962 13.0873C104.407 13.0873 103.978 13.2867 103.65 13.6856C103.322 14.0844 103.17 14.6328 103.17 15.2809C103.17 15.8294 103.271 16.2531 103.498 16.5523C103.7 16.8514 104.003 17.001 104.407 17.001C104.659 17.001 104.886 16.9511 105.063 16.8265V16.8514Z" fill="#DF1725"/>
</svg>
